<?xml version="1.0" encoding="UTF-8"?>
<svg id="Layer_1" data-name="Layer 1" xmlns="http://www.w3.org/2000/svg" viewBox="0 0 512 512">
  <defs>
    <style>
      .cls-1 {
        fill: #f46a03;
      }
    </style>
  </defs>
  <path class="cls-1" d="M432.57,297.3c-9.64-13.5-23.27-22.44-40.89-26.84-13.77-3.3-28.37-4.96-43.78-4.96h-176.75c-3.8.02-10.66.14-15.64-1.11-3.93-.87-14.38-3.33-23.22-11.64-10.01-9.41-15.75-24.28-13.64-39.25,2.83-20.08,18.42-30.57,22.13-33.07,16.12-10.85,40.02-13.65,55.76-4.03,9.46,5.78,13.85,12.56,30.61,23.38,2.89,1.87,6.38,3.52,10.91,4.84,2.74.8,27.65,7.64,47.35-7.21,3.35-2.53,12.18-9.92,16.21-22.9,5.1-16.41-1.02-30.25-2.83-33.97-5.35-10.98-11.1-15.83-19.22-21.79-4.85-3.56-16.04-10.64-36.63-15.4-24.36-5.63-50.96-4.5-73.15-.59-14.86,2.62-27.21,6.81-39.79,14.09-14.42,8.34-23.82,17.34-27.31,20.86-18.67,18.86-26.21,39.18-29.34,47.87-13.06,36.28-7.37,67.87-4.84,79.07,2.15,9.49,7.53,32.21,24.63,53.47,35.72,44.43,93.47,46.32,103.6,46.49,0,0,132.15,0,132.15,0,31.86-.23,60.12,15.71,63.6,47.9,49.42-13.43,70.9-74.53,40.06-115.22Z"/>
</svg>